# Blender v3.1.2 OBJ File: ''
# www.blender.org
mtllib sand.mtl
o Cube_Cube.001
v -0.200000 -0.200000 0.200000
v -0.200000 0.200000 0.200000
v -0.200000 -0.200000 -0.200000
v -0.200000 0.200000 -0.200000
v 0.200000 -0.200000 0.200000
v 0.200000 0.200000 0.200000
v 0.200000 -0.200000 -0.200000
v 0.200000 0.200000 -0.200000
v -0.200000 -0.200000 0.000000
v -0.200000 0.000000 0.200000
v -0.200000 0.200000 0.000000
v -0.200000 0.000000 -0.200000
v 0.000000 -0.200000 -0.200000
v 0.000000 0.200000 -0.200000
v 0.200000 0.000000 -0.200000
v 0.200000 -0.200000 0.000000
v 0.200000 0.200000 0.000000
v 0.200000 0.000000 0.200000
v 0.000000 -0.200000 0.200000
v 0.000000 0.200000 0.200000
v 0.000000 0.200000 0.000000
v 0.000000 -0.200000 0.000000
v 0.000000 0.000000 0.200000
v 0.200000 0.000000 0.000000
v 0.000000 0.000000 -0.200000
v -0.200000 0.000000 0.000000
v -0.200000 -0.200000 0.100000
v -0.200000 0.100000 0.200000
v -0.200000 0.200000 -0.100000
v -0.200000 -0.100000 -0.200000
v -0.100000 -0.200000 -0.200000
v 0.100000 0.200000 -0.200000
v 0.200000 -0.100000 -0.200000
v 0.200000 -0.200000 -0.100000
v 0.200000 0.200000 0.100000
v 0.200000 -0.100000 0.200000
v 0.100000 -0.200000 0.200000
v -0.100000 0.200000 0.200000
v -0.200000 -0.200000 -0.100000
v -0.200000 -0.100000 0.200000
v -0.200000 0.200000 0.100000
v -0.200000 0.100000 -0.200000
v 0.100000 -0.200000 -0.200000
v -0.100000 0.200000 -0.200000
v 0.200000 0.100000 -0.200000
v 0.200000 -0.200000 0.100000
v 0.200000 0.200000 -0.100000
v 0.200000 0.100000 0.200000
v -0.100000 -0.200000 0.200000
v 0.100000 0.200000 0.200000
v 0.000000 0.200000 0.100000
v 0.000000 0.200000 -0.100000
v 0.100000 0.200000 0.000000
v -0.100000 0.200000 0.000000
v 0.000000 -0.200000 0.100000
v 0.000000 -0.200000 -0.100000
v -0.100000 -0.200000 0.000000
v 0.100000 -0.200000 0.000000
v -0.100000 0.000000 0.200000
v 0.100000 0.000000 0.200000
v 0.000000 -0.100000 0.200000
v 0.000000 0.100000 0.200000
v 0.200000 0.000000 0.100000
v 0.200000 0.000000 -0.100000
v 0.200000 -0.100000 0.000000
v 0.200000 0.100000 0.000000
v 0.100000 0.000000 -0.200000
v -0.100000 0.000000 -0.200000
v 0.000000 -0.100000 -0.200000
v 0.000000 0.100000 -0.200000
v -0.200000 0.000000 -0.100000
v -0.200000 0.000000 0.100000
v -0.200000 -0.100000 0.000000
v -0.200000 0.100000 0.000000
v -0.200000 0.100000 0.100000
v -0.200000 -0.100000 0.100000
v -0.200000 -0.100000 -0.100000
v -0.100000 0.100000 -0.200000
v -0.100000 -0.100000 -0.200000
v 0.100000 -0.100000 -0.200000
v 0.200000 0.100000 -0.100000
v 0.200000 -0.100000 -0.100000
v 0.200000 -0.100000 0.100000
v 0.100000 0.100000 0.200000
v 0.100000 -0.100000 0.200000
v -0.100000 -0.100000 0.200000
v 0.100000 -0.200000 -0.100000
v -0.100000 -0.200000 -0.100000
v -0.100000 -0.200000 0.100000
v -0.100000 0.200000 -0.100000
v 0.100000 0.200000 -0.100000
v 0.100000 0.200000 0.100000
v -0.100000 0.200000 0.100000
v 0.100000 -0.200000 0.100000
v -0.100000 0.100000 0.200000
v 0.200000 0.100000 0.100000
v 0.100000 0.100000 -0.200000
v -0.200000 0.100000 -0.100000
vn 0.0000 -1.0000 0.0000
vn 0.0000 1.0000 0.0000
vn 0.0000 0.0000 1.0000
vn 1.0000 0.0000 0.0000
vn 0.0000 0.0000 -1.0000
vn -1.0000 0.0000 0.0000
usemtl Material.001
s off
f 46//1 37//1 94//1
f 52//2 53//2 91//2
f 50//3 62//3 84//3
f 47//4 66//4 81//4
f 67//5 33//5 80//5
f 68//5 69//5 79//5
f 44//5 70//5 78//5
f 71//6 30//6 77//6
f 72//6 73//6 76//6
f 41//6 74//6 75//6
f 2//6 75//6 28//6
f 76//6 9//6 27//6
f 40//6 27//6 1//6
f 77//6 3//6 39//6
f 26//6 77//6 73//6
f 78//5 25//5 68//5
f 42//5 68//5 12//5
f 79//5 13//5 31//5
f 12//5 79//5 30//5
f 81//4 24//4 64//4
f 45//4 64//4 15//4
f 82//4 16//4 34//4
f 33//4 34//4 7//4
f 15//4 82//4 33//4
f 84//3 23//3 60//3
f 85//3 19//3 37//3
f 36//3 37//3 5//3
f 86//3 1//3 49//3
f 61//3 49//3 19//3
f 23//3 86//3 61//3
f 43//1 56//1 13//1
f 7//1 87//1 43//1
f 13//1 88//1 31//1
f 89//1 1//1 27//1
f 57//1 27//1 9//1
f 22//1 89//1 57//1
f 91//2 17//2 47//2
f 14//2 91//2 32//2
f 53//2 35//2 17//2
f 21//2 92//2 53//2
f 54//2 51//2 21//2
f 11//2 93//2 54//2
f 58//1 55//1 22//1
f 16//1 94//1 58//1
f 95//3 10//3 59//3
f 62//3 59//3 23//3
f 17//4 96//4 66//4
f 97//5 15//5 67//5
f 70//5 67//5 25//5
f 14//5 97//5 70//5
f 46//1 5//1 37//1
f 52//2 21//2 53//2
f 50//3 20//3 62//3
f 47//4 17//4 66//4
f 67//5 15//5 33//5
f 68//5 25//5 69//5
f 44//5 14//5 70//5
f 71//6 12//6 30//6
f 72//6 26//6 73//6
f 41//6 11//6 74//6
f 2//6 41//6 75//6
f 76//6 73//6 9//6
f 40//6 76//6 27//6
f 77//6 30//6 3//6
f 26//6 71//6 77//6
f 78//5 70//5 25//5
f 42//5 78//5 68//5
f 79//5 69//5 13//5
f 12//5 68//5 79//5
f 81//4 66//4 24//4
f 45//4 81//4 64//4
f 82//4 65//4 16//4
f 33//4 82//4 34//4
f 15//4 64//4 82//4
f 84//3 62//3 23//3
f 85//3 61//3 19//3
f 36//3 85//3 37//3
f 86//3 40//3 1//3
f 61//3 86//3 49//3
f 23//3 59//3 86//3
f 43//1 87//1 56//1
f 7//1 34//1 87//1
f 13//1 56//1 88//1
f 89//1 49//1 1//1
f 57//1 89//1 27//1
f 22//1 55//1 89//1
f 91//2 53//2 17//2
f 14//2 52//2 91//2
f 53//2 92//2 35//2
f 21//2 51//2 92//2
f 54//2 93//2 51//2
f 11//2 41//2 93//2
f 58//1 94//1 55//1
f 16//1 46//1 94//1
f 95//3 28//3 10//3
f 62//3 95//3 59//3
f 17//4 35//4 96//4
f 97//5 45//5 15//5
f 70//5 97//5 67//5
f 14//5 32//5 97//5
usemtl Material.002
f 32//5 45//5 97//5
f 35//4 48//4 96//4
f 38//3 28//3 95//3
f 41//2 38//2 93//2
f 55//1 49//1 89//1
f 56//1 57//1 88//1
f 34//1 58//1 87//1
f 59//3 40//3 86//3
f 60//3 61//3 85//3
f 64//4 65//4 82//4
f 75//6 26//6 72//6
f 10//6 76//6 40//6
f 73//6 39//6 9//6
f 4//5 78//5 42//5
f 30//5 31//5 3//5
f 80//5 7//5 43//5
f 25//5 80//5 69//5
f 8//4 81//4 45//4
f 83//4 5//4 46//4
f 65//4 46//4 16//4
f 48//3 60//3 18//3
f 6//3 84//3 48//3
f 31//1 39//1 3//1
f 90//2 21//2 52//2
f 4//2 90//2 44//2
f 32//2 47//2 8//2
f 92//2 6//2 35//2
f 93//2 20//2 51//2
f 94//1 19//1 55//1
f 96//4 18//4 63//4
f 66//4 63//4 24//4
f 98//6 12//6 71//6
f 11//6 98//6 74//6
f 32//5 8//5 45//5
f 35//4 6//4 48//4
f 38//3 2//3 28//3
f 41//2 2//2 38//2
f 55//1 19//1 49//1
f 56//1 22//1 57//1
f 34//1 16//1 58//1
f 59//3 10//3 40//3
f 60//3 23//3 61//3
f 64//4 24//4 65//4
f 75//6 74//6 26//6
f 10//6 72//6 76//6
f 73//6 77//6 39//6
f 4//5 44//5 78//5
f 30//5 79//5 31//5
f 80//5 33//5 7//5
f 25//5 67//5 80//5
f 8//4 47//4 81//4
f 83//4 36//4 5//4
f 65//4 83//4 46//4
f 48//3 84//3 60//3
f 6//3 50//3 84//3
f 31//1 88//1 39//1
f 90//2 54//2 21//2
f 4//2 29//2 90//2
f 32//2 91//2 47//2
f 92//2 50//2 6//2
f 93//2 38//2 20//2
f 94//1 37//1 19//1
f 96//4 48//4 18//4
f 66//4 96//4 63//4
f 98//6 42//6 12//6
f 11//6 29//6 98//6
usemtl Material.003
f 29//6 42//6 98//6
f 51//2 50//2 92//2
f 29//2 54//2 90//2
f 63//4 36//4 83//4
f 28//6 72//6 10//6
f 69//5 43//5 13//5
f 24//4 83//4 65//4
f 18//3 85//3 36//3
f 87//1 22//1 56//1
f 88//1 9//1 39//1
f 44//2 52//2 14//2
f 20//3 95//3 62//3
f 74//6 71//6 26//6
f 29//6 4//6 42//6
f 51//2 20//2 50//2
f 29//2 11//2 54//2
f 63//4 18//4 36//4
f 28//6 75//6 72//6
f 69//5 80//5 43//5
f 24//4 63//4 83//4
f 18//3 60//3 85//3
f 87//1 58//1 22//1
f 88//1 57//1 9//1
f 44//2 90//2 52//2
f 20//3 38//3 95//3
f 74//6 98//6 71//6
